<?xml version="1.0" encoding="UTF-8"?>
<svg width="758px" height="276px" viewBox="0 0 758 276" version="1.1" xmlns="http://www.w3.org/2000/svg" xmlns:xlink="http://www.w3.org/1999/xlink">
    <title>Notion</title>
    <g id="Logos" stroke="none" stroke-width="1" fill="none" fill-rule="evenodd">
        <g id="Artboard" transform="translate(-2722.000000, -91.000000)" fill="#000000" fill-rule="nonzero">
            <g id="Notion" transform="translate(2722.000000, 91.000000)">
                <path d="M344.562107,188.246792 L344.562107,115.444394 L345.844369,115.444394 L398.233929,188.246792 L414.720155,188.246792 L414.720155,81.335462 L396.402127,81.335462 L396.402127,153.954479 L395.119865,153.954479 L342.730304,81.335462 L326.244079,81.335462 L326.244079,188.246792 L344.562107,188.246792 L344.562107,188.246792 Z M466.560174,189.897225 C490.739971,189.897225 505.577574,174.126428 505.577574,147.719513 C505.577574,121.495979 490.739971,105.541801 466.560174,105.541801 C442.563557,105.541801 427.542774,121.495979 427.542774,147.719513 C427.725955,174.126428 442.380377,189.897225 466.560174,189.897225 Z M466.560174,174.493191 C453.737554,174.493191 446.410343,164.773979 446.410343,147.719513 C446.410343,130.848428 453.737554,120.945835 466.560174,120.945835 C479.382794,120.945835 486.710005,130.848428 486.710005,147.719513 C486.710005,164.773979 479.382794,174.493191 466.560174,174.493191 Z M522.246979,87.3870467 L522.246979,107.742377 L509.42436,107.742377 L509.42436,122.412886 L522.246979,122.412886 L522.246979,166.607792 C522.246979,182.378589 529.57419,188.613555 548.258579,188.613555 C551.739004,188.613555 555.21943,188.246792 557.967134,187.696648 L557.967134,173.392903 C555.768971,173.576284 554.303528,173.759665 551.739004,173.759665 C544.045433,173.759665 540.565007,170.27542 540.565007,162.20664 L540.565007,122.412886 L557.967134,122.412886 L557.967134,107.742377 L540.565007,107.742377 L540.565007,87.3870467 L522.246979,87.3870467 L522.246979,87.3870467 Z M568.957951,188.246792 L587.275979,188.246792 L587.275979,107.192233 L568.957951,107.192233 L568.957951,188.246792 Z M578.116965,93.8053942 C584.161914,93.8053942 589.107782,88.8540976 589.107782,82.8025128 C589.107782,76.5675467 584.161914,71.6162501 578.116965,71.6162501 C572.072015,71.6162501 567.126148,76.5675467 567.126148,82.8025128 C567.126148,88.8540976 572.072015,93.8053942 578.116965,93.8053942 L578.116965,93.8053942 Z M637.467376,189.897225 C661.647173,189.897225 676.484775,174.126428 676.484775,147.719513 C676.484775,121.495979 661.647173,105.541801 637.467376,105.541801 C613.470759,105.541801 598.449976,121.495979 598.449976,147.719513 C598.449976,174.126428 613.104398,189.897225 637.467376,189.897225 Z M637.467376,174.493191 C624.644756,174.493191 617.317545,164.773979 617.317545,147.719513 C617.317545,130.848428 624.644756,120.945835 637.467376,120.945835 C650.106815,120.945835 657.617206,130.848428 657.617206,147.719513 C657.434026,164.773979 650.106815,174.493191 637.467376,174.493191 Z M687.292412,188.246792 L705.61044,188.246792 L705.61044,141.117784 C705.61044,129.197996 712.57129,121.67936 723.378927,121.67936 C734.552924,121.67936 739.681972,127.914326 739.681972,140.200877 L739.681972,188.246792 L758,188.246792 L758,135.799725 C758,116.361301 748.108265,105.541801 730.156597,105.541801 C718.066699,105.541801 710.006767,111.043242 706.159981,120.212309 L704.877719,120.212309 L704.877719,107.192233 L687.109232,107.192233 C687.292412,107.192233 687.292412,188.246792 687.292412,188.246792 Z" id="Shape"></path>
                <path d="M45.6118898,48.326818 C54.221363,55.2953095 57.3354277,54.7451654 73.4552924,53.6448773 L225.311745,44.4758095 C228.60899,44.4758095 225.861286,41.1749451 224.762204,40.8081824 L199.483325,22.6534282 C194.720638,18.9858011 188.126148,14.5846485 175.853069,15.6849367 L28.9424843,26.5044366 C23.6302562,27.0545807 22.5311745,29.805301 24.7293378,31.822496 L45.6118898,48.326818 Z M54.7709038,83.7194196 L54.7709038,243.627962 C54.7709038,252.246886 58.9840503,255.364369 68.6926051,254.814224 L235.569841,245.095013 C245.278395,244.544869 246.377477,238.676665 246.377477,231.708174 L246.377477,72.8999196 C246.377477,65.9314281 243.629773,62.0804196 237.768004,62.6305637 L63.380377,72.8999196 C56.9690672,73.4500637 54.7709038,76.7509281 54.7709038,83.7194196 L54.7709038,83.7194196 Z M219.449976,92.3383433 C220.549058,97.1062586 219.449976,102.057555 214.687289,102.607699 L206.627356,104.258131 L206.627356,222.355725 C199.666506,226.023352 193.255196,228.223928 187.759787,228.223928 C179.150314,228.223928 176.952151,225.473208 170.540841,217.404428 L117.968101,134.699436 L117.968101,214.653708 L134.637506,218.321335 C134.637506,218.321335 134.637506,228.040547 121.265346,228.040547 L84.262929,230.241123 C83.1638473,228.040547 84.262929,222.722487 87.9265346,221.622199 L97.6350894,218.871479 L97.6350894,113.243818 L84.262929,112.14353 C83.1638473,107.375614 85.9115515,100.407123 93.421943,99.8569789 L133.172064,97.1062586 L187.942968,180.728157 L187.942968,106.82547 L174.021266,105.175038 C172.922185,99.3068348 177.318511,94.9056823 182.630739,94.3555382 L219.449976,92.3383433 Z M16.6694055,11.8339282 L169.62494,0.647665483 C188.309328,-1.00276672 193.255196,0.0975214162 204.978734,8.71644513 L253.704688,43.0087586 C261.764621,48.876962 264.512325,50.5273942 264.512325,56.9457417 L264.512325,245.278394 C264.512325,257.014801 260.299178,263.983292 245.278395,265.08358 L67.7767037,275.90308 C56.4195263,276.453224 51.1072982,274.802792 45.2455292,267.284157 L9.15901402,220.521911 C2.7477042,211.902987 0,205.48464 0,197.966004 L0,30.5388265 C0,20.8196146 4.39632673,12.9342163 16.6694055,11.8339282 Z" id="Shape"></path>
            </g>
        </g>
    </g>
</svg>